<?xml version="1.0" standalone="no"?><!DOCTYPE svg PUBLIC "-//W3C//DTD SVG 1.1//EN" "http://www.w3.org/Graphics/SVG/1.1/DTD/svg11.dtd"><svg t="1514862644960" class="icon" style="" viewBox="0 0 1024 1024" version="1.1" xmlns="http://www.w3.org/2000/svg" p-id="1483" xmlns:xlink="http://www.w3.org/1999/xlink" width="200" height="200"><defs><style type="text/css"></style></defs><path d="M828.176033 196.271152C743.804437 111.897509 631.625518 65.432245 512.304945 65.432245S280.806477 111.897509 196.434881 196.271152c-84.372619 84.371596-130.837884 196.550515-130.837884 315.870064 0 86.928838 24.996301 171.205267 72.285327 243.717767 9.374508 14.375405 28.628014 18.427698 43.00342 9.055237 14.374382-9.374508 18.428721-28.628014 9.054213-43.002396-40.687678-62.390979-62.193481-134.928039-62.193481-209.770608 0-212.046441 172.513052-384.561539 384.560516-384.561539 212.047464 0 384.561539 172.514075 384.561539 384.561539S724.353432 896.702756 512.304945 896.702756c-70.216201 0-138.910747-19.09387-198.657502-55.213509-14.686491-8.881274-33.789571-4.174066-42.669822 10.513448-8.879228 14.687514-4.172019 33.791617 10.514471 42.668799 69.446675 41.986253 149.260465 64.179718 230.81183 64.179718 119.319549 0 231.499491-46.465265 315.871087-130.838907 84.372619-84.371596 130.837884-196.550515 130.837884-315.870064S912.548652 280.642748 828.176033 196.271152z" p-id="1484"></path><path d="M439.668625 713.415312c10.072403 0 20.146852-3.843538 27.831882-11.529591l296.458969-296.458969c15.371082-15.371082 15.371082-40.291658 0-55.662741-15.371082-15.371082-40.293705-15.371082-55.664787 0L439.668625 618.391099 319.270511 497.994008c-15.371082-15.375176-40.293705-15.375176-55.664787 0-15.371082 15.371082-15.371082 40.291658 0 55.662741l148.228973 148.228973C419.521772 709.571774 429.595198 713.415312 439.668625 713.415312z" p-id="1485"></path></svg>