<?xml version="1.0" standalone="no"?><!DOCTYPE svg PUBLIC "-//W3C//DTD SVG 1.1//EN" "http://www.w3.org/Graphics/SVG/1.1/DTD/svg11.dtd"><svg t="1514863834744" class="icon" style="" viewBox="0 0 1024 1024" version="1.1" xmlns="http://www.w3.org/2000/svg" p-id="5711" xmlns:xlink="http://www.w3.org/1999/xlink" width="200" height="200"><defs><style type="text/css"></style></defs><path d="M507.136 996.004571c-265.563429 0-480.859429-215.405714-480.859429-481.133714 0-265.728 215.296-481.133714 480.859429-481.133714 265.563429 0 480.859429 215.424 480.859429 481.133714C987.995429 780.580571 772.717714 996.004571 507.136 996.004571zM452.571429 825.545143l98.523429 0 0-95.542857L452.571429 730.002286 452.571429 825.545143zM539.154286 204.544c-129.408-3.968-207.030857 54.765714-232.868571 176.146286l86.582857 20.900571c17.92-81.590857 61.677714-121.380571 131.364571-119.424 59.702857 4.004571 92.562286 33.865143 98.523429 89.563429 3.968 37.833143-22.912 76.653714-80.603429 116.443429-53.741714 37.833143-79.634286 84.626286-77.622857 140.324571 0 13.952 0 24.905143 0 32.841143l77.622857 0c0-3.968 0-12.928 0-26.861714-2.011429-41.801143 20.900571-77.622857 68.662857-107.483429 75.611429-47.762286 111.451429-102.491429 107.483429-164.205714C708.297143 263.277714 648.594286 210.523429 539.154286 204.544z" p-id="5712"></path></svg>