<?xml version="1.0" standalone="no"?><!DOCTYPE svg PUBLIC "-//W3C//DTD SVG 1.1//EN" "http://www.w3.org/Graphics/SVG/1.1/DTD/svg11.dtd"><svg t="1514810758428" class="icon" style="" viewBox="0 0 1024 1024" version="1.1" xmlns="http://www.w3.org/2000/svg" p-id="1088" xmlns:xlink="http://www.w3.org/1999/xlink" width="200" height="200"><defs><style type="text/css"></style></defs><path d="M742.0416 805.3545c0 31.9304-26.1243 58.0536-58.0536 58.0536h-344.54528000000005c-31.9293 0-58.0536-26.1243-58.0536-58.0536V396.4416c0-31.9293 26.1243-58.0536 58.0536-58.0536h344.54528000000005c31.9304 0 58.0536 26.1243 58.0536 58.0536V805.3544959999999zM415.0784 485.0125c0-31.9293-14.6575-58.0536-32.5724-58.0536-17.9149 0-32.5724 26.1243-32.5724 58.0536v231.95136c0 31.9304 14.6575 58.0536 32.5724 58.0536 17.9149 0 32.5724-26.1243 32.5724-58.0536V485.01248zM544.2796 485.0125c0-31.9293-14.6545-58.0536-32.5642-58.0536-17.9108 0-32.5642 26.1243-32.5642 58.0536v231.95136c0 31.9304 14.6545 58.0536 32.5642 58.0536 17.9098 0 32.5642-26.1243 32.5642-58.0536V485.01248zM673.2544 485.0125c0-31.9293-14.6575-58.0536-32.5724-58.0536-17.9149 0-32.5734 26.1243-32.5734 58.0536v231.95136c0 31.9304 14.6575 58.0536 32.5734 58.0536 17.9139 0 32.5724-26.1243 32.5724-58.0536V485.01248z" p-id="1089"></path><path d="M797.3007 319.4839c-2.7433 18.9368-30.8306 30.6166-62.4179 25.9543l-455.6984-67.2645c-31.5873-4.6623-55.1875-23.9718-52.4431-42.9087 2.7433-18.9368 30.8316-30.6156 62.42-25.9533l455.6964 67.2645C776.4439 281.2375 800.043 300.5471 797.3007 319.4839z" p-id="1090"></path><path d="M457.1781 243.3812c12.372-34.601 35.4263-54.4829 72.834-48.7834 37.4077 5.6965 47.3836 33.7572 49.5032 67.0607l40.6794 6.3201c0.0911-50.6788-36.5619-95.147-87.7015-102.9366-51.1365-7.7896-99.157 23.7814-113.8842 72.2309L457.1781 243.3812z" p-id="1091"></path></svg>