<?xml version="1.0" standalone="no"?><!DOCTYPE svg PUBLIC "-//W3C//DTD SVG 1.1//EN" "http://www.w3.org/Graphics/SVG/1.1/DTD/svg11.dtd"><svg t="1514863858536" class="icon" style="" viewBox="0 0 1363 1024" version="1.1" xmlns="http://www.w3.org/2000/svg" p-id="6487" xmlns:xlink="http://www.w3.org/1999/xlink" width="266.2109375" height="200"><defs><style type="text/css"></style></defs><path d="M1136.589539 1023.999969 223.034163 1023.999969c-52.194284 0-97.8744-42.942676-97.8744-95.776398L125.159763 224.612506c0-52.861241 42.416557-95.778017 97.8744-95.778017l355.63892 0-130.514849 128.805365-97.8744 0c-52.207235 0-97.8744 42.944295-97.8744 95.805537l0 442.639645c0 52.859623 42.401987 95.776398 97.8744 95.776398L1009.339869 891.861435c52.194284 0 97.859831-42.916775 97.859831-95.776398l0-287.390709 127.27881-118.915939 0 535.139533C1234.478509 981.055674 1192.032813 1023.999969 1136.589539 1023.999969L1136.589539 1023.999969zM1028.924462 323.722073 836.423032 128.83449l0-62.778188 97.890588-66.056316 65.22262 0 163.16501 194.889202 0 66.056316-65.27766 66.082218-68.497511 0L1028.92608 323.722073zM425.32627 726.723072 425.32627 518.611275l218.596952 194.887583 0 13.224214L425.32627 726.723072 425.32627 726.723072zM966.923312 449.22179 705.922753 680.473128 480.813252 455.833087l257.72243-257.638251 65.276041 0L966.923312 360.056689 966.923312 449.22179 966.923312 449.22179zM966.923312 449.22179" p-id="6488"></path></svg>